<?xml version="1.0" encoding="UTF-8"?>
<svg width="48" height="16" viewBox="0 0 48 16" fill="none" xmlns="http://www.w3.org/2000/svg">
  <path d="M21.4865 2.91602L17.1543 13.084H13.9277L11.8047 4.78385C11.6504 4.18752 11.5156 3.96877 11.0742 3.71877C10.3594 3.31252 9.19336 2.93752 8.16016 2.70068L8.25 2.91602H13.0664L15.1895 11.2161L18.0938 2.91602H21.4865ZM32.2266 9.49219C32.2461 6.38294 28.1836 6.24219 28.2227 4.93752C28.2422 4.49219 28.6641 4.02085 29.5645 3.90235C30.0254 3.84377 31.2891 3.80469 32.7188 4.37502L33.2188 1.63294C32.4258 1.35419 31.4277 1.08335 30.1836 1.08335C27.0547 1.08335 24.8535 2.79169 24.8145 5.24219C24.7754 7.07294 26.3613 8.10419 27.5664 8.71877C28.8105 9.35419 29.2324 9.74219 29.2129 10.3191C29.1934 11.1895 28.1836 11.5581 27.2441 11.5776C25.7363 11.6161 24.8535 11.1504 24.1582 10.8035L23.6387 13.6259C24.3535 13.9728 25.7168 14.2816 27.1465 14.3006C30.4668 14.3006 32.207 12.6113 32.2266 9.49219ZM40.8984 13.084H43.8613L41.0547 2.91602H38.4023C37.7461 2.91602 37.1875 3.27085 36.9355 3.84377L32.0918 13.084H35.4844L36.1797 11.3191H40.3984L40.8984 13.084ZM37.0918 8.93752L38.7559 4.76877L39.7344 8.93752H37.0918ZM26.0898 2.91602L23.4375 13.084H20.2695L22.9219 2.91602H26.0898Z" fill="#1A1F71"/>
</svg> 